# xmcd
# Track frame offsets:
# 150
# 10157
# 19573
# 33534
# 50655
# 65003
# 80277
# 96983
# 110026
# 123147
# 140950
# 153535
# 168956
#
# Disc length: 2468 seconds
# Revision: 0
# Processed by: cddbd v1.5.2PL0 Copyright (c) Steve Scherf et al.
# Submitted via: VisiTrax 2.11.1.266 - For more info visit www.synapsa.com
#
DISCID=ae09a20d
DTITLE=Storer, Greg - Backwater
DYEAR=1900
DGENRE=Country
TTITLE0=Busted Door
TTITLE1=Lazy River
TTITLE2=Bitter Twisted Little Man
TTITLE3=Jimmy O'Dee
TTITLE4=When I Was a Boy
TTITLE5=Slowly Yours
TTITLE6=Muddy Road
TTITLE7=Ploughman's Prayer
TTITLE8=Hey You
TTITLE9=Blackest Day
TTITLE10=Little Feet
TTITLE11=In Harmony
TTITLE12=Sweet Sunday
EXTD=
EXTT0=
EXTT1=
EXTT2=
EXTT3=
EXTT4=
EXTT5=
EXTT6=
EXTT7=
EXTT8=
EXTT9=
EXTT10=
EXTT11=
EXTT12=
PLAYORDER=
